<svg width="239" height="209" viewBox="0 0 239 209" fill="none" xmlns="http://www.w3.org/2000/svg">
<path d="M33.1808 1.52196C20.2474 5.25529 13.9808 10.5886 11.0474 20.322C9.44743 25.922 9.31409 28.4553 10.5141 32.722C13.3141 43.3886 19.9808 48.1886 41.7141 55.522C60.3808 61.7886 63.1808 64.5886 56.2474 70.1886C52.9141 72.8553 51.4474 73.122 41.9808 72.322C31.1808 71.522 21.5808 67.922 14.1141 61.922C10.9141 59.3886 10.2474 59.2553 8.64743 60.8553C6.24743 63.3886 6.11409 64.0553 6.38076 79.6553C6.51409 94.5886 7.58076 96.5886 15.9808 98.322C38.2474 102.989 66.2474 103.389 79.1808 99.3886C92.6474 95.122 101.181 85.122 101.181 73.6553C101.181 58.4553 93.3141 50.9886 70.1141 44.322C49.1808 38.1886 44.3808 35.122 49.1808 30.8553C55.1808 25.3886 77.1808 27.522 86.7808 34.4553C89.1808 36.1886 91.4474 36.722 93.3141 36.1886C96.1141 35.2553 96.2474 34.5886 95.4474 23.3886C94.3808 7.25529 93.0474 4.72196 83.8474 2.45529C72.1141 -0.344709 41.9808 -0.878042 33.1808 1.52196Z" fill="#536757"/>
<path d="M167.448 4.18863C157.581 7.6553 151.581 16.4553 146.514 34.8553C140.781 55.6553 137.581 60.0553 132.914 54.1886C131.048 51.922 130.514 48.8553 130.514 41.522C130.514 31.2553 132.781 23.122 137.314 16.722C142.381 9.52197 140.381 8.32197 124.248 9.2553C116.514 9.78863 109.314 10.8553 108.381 11.522C104.914 14.5886 103.181 26.722 103.314 48.1886C103.314 64.5886 103.848 70.8553 105.581 75.2553C110.781 88.8553 119.181 94.8553 131.448 93.922C143.848 92.8553 150.248 85.6553 157.181 64.4553C163.581 45.2553 169.181 39.922 173.848 48.8553C178.114 57.2553 175.048 74.1886 167.048 85.922C159.848 96.322 160.914 97.3886 178.648 97.922C197.714 98.322 198.514 97.7886 201.581 83.522C203.314 75.522 204.114 65.922 204.248 50.8553C204.381 30.1886 204.381 29.2553 200.648 21.2553C196.248 11.522 191.848 6.98863 183.981 4.18863C176.914 1.78863 174.114 1.78863 167.448 4.18863Z" fill="#536757"/>
<path d="M134.514 108.322C124.247 111.522 118.247 115.789 114.914 122.055C109.447 132.322 111.181 141.389 120.114 149.655C125.447 154.722 129.314 156.722 143.181 161.389C156.914 166.055 159.714 167.522 161.447 170.589C162.514 172.589 162.114 173.789 159.981 175.922C153.581 182.322 131.981 179.255 119.181 170.055C110.247 163.655 109.181 164.989 109.181 183.522C109.181 196.055 109.581 199.789 111.314 201.389C112.381 202.589 113.581 203.522 113.847 203.522C114.114 203.522 120.381 204.722 127.847 206.189C152.381 210.989 179.314 208.989 190.781 201.522C198.381 196.455 202.781 189.789 203.581 182.189C204.381 173.522 203.314 169.789 198.247 164.189C192.914 158.055 186.914 154.989 168.914 149.522C153.314 144.722 150.514 143.255 150.514 139.522C150.514 137.122 154.514 134.989 161.981 133.522C167.047 132.589 181.314 135.922 187.581 139.655C189.981 140.989 193.181 142.189 194.647 142.189C197.047 142.189 197.181 141.122 197.181 128.322C197.181 113.522 196.247 110.855 190.114 109.522C176.514 106.722 171.047 106.189 156.781 106.322C146.647 106.322 138.247 107.122 134.514 108.322Z" fill="#536757"/>
<path d="M64.5141 114.989C61.7141 116.055 57.8474 118.189 56.2474 119.789C50.9141 124.722 44.6474 140.322 40.2474 158.855C39.9808 160.322 38.5141 163.122 37.1808 164.855C33.8474 169.255 30.6474 167.389 28.1141 159.522C25.5808 151.922 27.5808 140.722 33.3141 130.322C39.3141 119.655 38.6474 118.989 21.4474 120.055C13.5808 120.589 6.51409 121.789 5.58076 122.589C1.18076 126.989 -1.75258 166.189 1.18076 179.255C3.31409 188.455 7.84742 196.722 12.9141 200.589C19.1808 205.389 31.8474 206.322 38.1141 202.322C44.9141 198.055 50.1141 189.522 54.7808 175.122C59.5808 159.922 63.1808 154.722 67.4474 156.055C71.8474 157.389 73.5808 163.389 72.5141 173.789C71.4474 184.989 69.9808 188.989 64.1141 197.389C57.3141 207.122 58.5141 208.055 76.9141 208.455C89.1808 208.722 92.1141 208.455 94.3808 206.455C98.7808 202.722 101.581 186.055 101.581 162.189C101.714 143.789 101.314 140.722 98.6474 133.789C95.3141 125.122 90.5141 118.989 85.3141 116.322C79.5808 113.255 70.3808 112.722 64.5141 114.989Z" fill="#536757"/>
<path d="M219.581 175.122C216.381 178.855 215.847 181.788 217.314 186.188C220.114 194.055 229.447 195.388 235.047 188.722C239.447 183.655 239.447 181.122 235.181 176.455C231.047 172.055 222.781 171.388 219.581 175.122Z" fill="#536757"/>
</svg>
